<?xml version="1.0" encoding="UTF-8" standalone="no"?>
<svg
   xmlns:dc="http://purl.org/dc/elements/1.1/"
   xmlns:cc="http://creativecommons.org/ns#"
   xmlns:rdf="http://www.w3.org/1999/02/22-rdf-syntax-ns#"
   xmlns:svg="http://www.w3.org/2000/svg"
   xmlns="http://www.w3.org/2000/svg"
   viewBox="0 0 664 194.66667"
   height="194.66667"
   width="664"
   xml:space="preserve"
   id="svg2"
   version="1.1"><metadata
     id="metadata8"><rdf:RDF><cc:Work
         rdf:about=""><dc:format>image/svg+xml</dc:format><dc:type
           rdf:resource="http://purl.org/dc/dcmitype/StillImage" /></cc:Work></rdf:RDF></metadata><defs
     id="defs6"><clipPath
       id="clipPath18"
       clipPathUnits="userSpaceOnUse"><path
         id="path16"
         d="M 0,146 H 498 V 0 H 0 Z" /></clipPath></defs><g
     transform="matrix(1.3333333,0,0,-1.3333333,0,194.66667)"
     id="g10"><g
       id="g12"><g
         clip-path="url(#clipPath18)"
         id="g14"><g
           transform="translate(16.6341,44.1333)"
           id="g20"><path
             id="path22"
             style="fill:#2481b5;fill-opacity:1;fill-rule:nonzero;stroke:none"
             d="m 0,0 v -14.101 c 1.263,1.466 3.841,4.397 9.805,4.397 5.508,0 11.523,-3.74 11.523,-11.775 v -18.346 h -8.137 v 17.133 c 0,0.961 -0.404,6.367 -6.621,6.367 -4.195,0 -6.57,-2.78 -6.57,-6.367 v -17.133 h -8.136 l 0,39.825 z" /></g><path
           id="path24"
           style="fill:#2481b5;fill-opacity:1;fill-rule:nonzero;stroke:none"
           d="m 52.621,4.308 h -8.289 v 29.061 h 8.289 z m 0,32.698 h -8.289 v 7.127 h 8.289 z" /><g
           transform="translate(67.1781,12.0905)"
           id="g26"><path
             id="path28"
             style="fill:#2481b5;fill-opacity:1;fill-rule:nonzero;stroke:none"
             d="M 0,0 V -7.783 H -8.136 V 32.043 H 0 V 9.148 l 11.928,12.13 h 9.956 L 11.675,11.322 23.097,-7.783 H 13.292 L 6.065,5.914 Z" /></g><g
           transform="translate(114.9917,18.2067)"
           id="g30"><path
             id="path32"
             style="fill:#2481b5;fill-opacity:1;fill-rule:nonzero;stroke:none"
             d="m 0,0 c -1.466,-0.758 -2.224,-0.91 -5.761,-1.466 -5.307,-0.808 -8.036,-1.213 -8.036,-4.093 0,-3.286 5.458,-3.286 5.762,-3.286 6.064,0 8.035,4.903 8.035,5.963 z m 0.859,-13.899 c -0.656,1.111 -0.808,2.274 -0.859,3.437 -1.263,-1.466 -3.993,-4.548 -11.068,-4.548 -3.487,0 -11.27,0.556 -11.27,9.199 0,7.227 6.216,8.085 13.595,9.096 C -1.667,4.295 0,4.498 0,6.924 c 0,3.285 -3.235,3.435 -5.306,3.435 -7.531,0 -7.581,-2.474 -7.581,-3.89 h -7.986 c 0.252,1.971 0.606,4.801 3.74,7.025 3.033,2.123 8.845,2.729 11.675,2.729 4.346,0 13.596,-1.163 13.596,-9.401 V -9.906 c 0,-0.858 0.505,-2.78 1.414,-3.335 v -0.658 z" /></g><g
           transform="translate(136.4236,12.0905)"
           id="g34"><path
             id="path36"
             style="fill:#2481b5;fill-opacity:1;fill-rule:nonzero;stroke:none"
             d="M 0,0 V -7.783 H -8.136 V 32.043 H 0 V 9.148 l 11.928,12.13 h 9.956 L 11.675,11.322 23.097,-7.783 H 13.292 L 6.065,5.914 Z" /></g><g
           transform="translate(184.3886,4.308)"
           id="g38"><path
             id="path40"
             style="fill:#2481b5;fill-opacity:1;fill-rule:nonzero;stroke:none"
             d="m 0,0 -0.151,3.285 c -1.264,-1.414 -3.842,-4.396 -9.805,-4.396 -5.509,0 -11.523,3.74 -11.523,11.825 v 18.347 h 8.137 V 11.928 c 0,-1.011 0.404,-6.419 6.671,-6.419 4.144,0 6.52,2.831 6.52,6.419 V 29.061 H 7.986 L 7.986,0 Z" /></g><g
           transform="translate(95.1389,120.0047)"
           id="g42"><path
             id="path44"
             style="fill:#1b75b2;fill-opacity:1;fill-rule:nonzero;stroke:none"
             d="m 0,0 c 0.404,-0.403 0.808,-1.011 0.808,-1.414 0,-1.315 -1.313,-1.315 -3.537,-1.113 -1.92,-1.313 -10.008,-7.885 -11.725,-9.096 -4.852,-3.437 -9.906,-6.571 -15.061,-9.503 v -26.077 c 0,-2.931 2.224,-3.437 3.84,-3.437 h 7.682 c 2.528,0 4.347,0 5.459,12.938 3.234,-2.326 7.885,-5.56 14.859,-7.076 -1.517,-13.444 -4.145,-21.226 -14.859,-21.226 h -18.902 c -3.639,0 -13.241,1.01 -13.241,11.219 v 80.864 l 15.768,-0.91 c 1.011,-0.101 1.921,-0.303 1.921,-1.414 0,-1.011 -1.214,-1.921 -2.527,-2.629 V -2.829 c 3.84,2.829 12.433,9.501 16.778,14.454 z m -48.013,-2.224 v -15.465 h -19.509 v -29.616 c 4.246,0.808 15.567,3.337 20.722,4.548 -0.91,-3.132 -1.921,-10.409 -1.82,-14.149 -9.198,-2.73 -18.092,-5.459 -38.814,-9.604 -1.112,-1.718 -1.719,-2.729 -2.527,-2.729 -0.91,0 -1.314,1.213 -1.416,1.819 l -3.334,15.162 11.321,2.021 v 76.418 l 16.678,-0.81 c 0.808,0 1.313,-0.505 1.313,-1.213 0,-1.314 -1.415,-2.122 -2.123,-2.527 V -2.224 Z" /></g><g
           transform="translate(186.6277,107.5718)"
           id="g46"><path
             id="path48"
             style="fill:#1b75b2;fill-opacity:1;fill-rule:nonzero;stroke:none"
             d="m 0,0 c -2.022,2.932 -4.245,5.761 -8.794,11.322 l 5.661,4.345 h -16.982 l 7.581,-3.537 c 0.606,-0.303 1.415,-0.808 1.415,-1.516 0,-1.213 -1.314,-1.213 -2.931,-1.213 -1.112,-2.527 -2.325,-4.953 -5.357,-10.007 l 4.042,1.314 c 0.506,-2.932 1.516,-9.501 5.357,-17.284 4.751,9.299 5.56,15.06 5.964,17.689 z m -34.973,-23.955 h -13.242 v -4.751 h 14.959 v -10.817 c 5.054,2.63 9.198,5.459 14.253,10.312 -4.347,6.672 -6.368,12.33 -7.784,18.497 -1.112,-1.314 -1.415,-1.616 -2.122,-2.224 -1.011,0.91 -3.335,3.134 -6.064,5.055 z m -13.647,9.804 h 3.639 v 6.774 h -3.639 z m 3.639,21.125 H -48.62 V 0.405 h 3.639 z m -18.194,-21.125 h 3.537 v 6.774 h -3.537 z m 3.537,21.125 h -3.537 V 0.405 h 3.537 z M 5.66,15.667 c 7.278,-8.793 12.737,-17.688 14.657,-20.821 -4.548,-2.729 -6.571,-4.55 -11.22,-8.692 -1.314,2.021 -1.416,2.223 -1.82,2.929 -0.404,-1.313 -3.537,-11.22 -8.49,-18.902 10.107,-10.006 18.598,-13.644 21.428,-14.857 -4.144,-3.337 -8.693,-8.49 -10.815,-11.322 -3.841,2.124 -11.523,6.672 -19.913,15.667 -7.378,-7.58 -14.251,-12.33 -23.652,-15.87 -3.538,5.661 -5.256,7.988 -10.108,12.433 2.123,0.608 4.548,1.316 7.782,2.73 h -11.724 v -14.05 h -11.827 v 14.05 h -16.375 v 12.332 h 16.375 v 4.751 h -13.342 v 39.42 h 13.746 v 4.55 h -16.779 v 10.714 h 16.779 v 7.378 l 11.726,-0.909 c 0.808,-0.102 2.123,-0.202 2.123,-1.415 0,-0.911 -0.911,-1.314 -2.426,-1.819 v -3.235 h 14.252 V 20.015 h -14.252 v -4.55 h 13.242 V 0.91 c 3.436,4.548 6.469,9.299 8.793,14.757 h -5.761 v 13.241 h 15.162 v 9.099 l 14.251,-0.809 c 1.213,-0.102 2.124,-0.102 2.124,-1.213 0,-0.808 -1.517,-1.516 -2.124,-1.819 V 28.908 H 15.97 V 15.667 Z" /></g><g
           transform="translate(249.317,56.4812)"
           id="g50"><path
             id="path52"
             style="fill:#000000;fill-opacity:1;fill-rule:nonzero;stroke:none"
             d="m 0,0 c 0,-15.615 5.384,-31.77 24.052,-31.77 18.487,0 23.873,16.155 23.873,31.77 0,15.617 -5.386,31.592 -23.873,31.592 C 5.744,31.592 0,15.977 0,0 m -0.359,38.771 c 3.231,5.206 10.231,16.334 33.027,16.334 31.052,0 46.308,-24.232 46.308,-55.284 0,-27.102 -12.385,-55.643 -48.283,-55.643 -9.154,0 -23.692,1.436 -33.205,18.31 l -0.54,-14.361 H -29.258 V 89.568 h 28.899 z" /></g><g
           transform="translate(395.4349,27.2243)"
           id="g54"><path
             id="path56"
             style="fill:#000000;fill-opacity:1;fill-rule:nonzero;stroke:none"
             d="M 0,0 58.874,57.976 H 4.129 V 80.594 H 98.901 V 57.976 L 40.028,0 h 62.284 V -22.616 H 0 Z" /></g><g
           transform="translate(367.314,146.099)"
           id="g58"><path
             id="path60"
             style="fill:#1b75b2;fill-opacity:1;fill-rule:nonzero;stroke:none"
             d="m 0,0 h -14.837 l -7.41,-17.332 6.356,-6.957 H 1.05 l 6.36,6.957 z" /></g><g
           transform="translate(366.2465,113.8731)"
           id="g62"><path
             id="path64"
             style="fill:#1b75b2;fill-opacity:1;fill-rule:nonzero;stroke:none"
             d="M 0,0 H -12.706 L -25.415,-91.94 -6.35,-110.269 12.713,-91.94 Z" /></g></g></g></g></svg>