<?xml version="1.0" encoding="utf-8"?>
<!-- Generator: Adobe Illustrator 26.2.1, SVG Export Plug-In . SVG Version: 6.00 Build 0)  -->
<svg version="1.1" id="レイヤー_1" xmlns="http://www.w3.org/2000/svg" xmlns:xlink="http://www.w3.org/1999/xlink" x="0px"
	 y="0px" viewBox="0 0 280 150" style="enable-background:new 0 0 280 150;" xml:space="preserve">
<style type="text/css">
	.st0{fill:#4C8236;}
	.st1{display:none;fill:#FFFFFF;}
	.st2{fill:#FFFFFF;stroke:#FFFFFF;stroke-miterlimit:10;}
	.st3{display:none;}
	.st4{display:inline;fill:#FFFFFF;}
	.st5{fill:#FFFFFF;}
</style>
<rect x="-18.18" y="-23.18" class="st0" width="320" height="208"/>
<path id="_x34_.e-mail_1_" class="st1" d="M93.88,41.28H35.15c-10.54,0-14.68,4.14-14.68,14.68v39.15
	c0,10.54,4.14,14.68,14.68,14.68h58.73c10.54,0,14.68-4.14,14.68-14.68V55.96C108.56,45.42,104.42,41.28,93.88,41.28z M35.15,44.95
	h58.73c3.21,0,5.57,0.35,7.25,1.24L66.74,82.73c-0.89,0.94-1.64,1.42-2.23,1.42c-0.59,0-1.34-0.48-2.23-1.42L27.89,46.19
	C29.58,45.3,31.93,44.95,35.15,44.95z M104.89,95.12c0,8.54-2.47,11.01-11.01,11.01H35.15c-8.54,0-11.01-2.47-11.01-11.01V55.96
	c0-3.15,0.34-5.47,1.19-7.15l25.65,27.26L30.79,96.27c-0.72,0.72-0.72,1.88,0,2.6c0.36,0.36,0.83,0.54,1.3,0.54
	c0.47,0,0.94-0.18,1.3-0.54L53.5,78.75l6.11,6.5c1.63,1.74,3.24,2.58,4.9,2.58c1.66,0,3.27-0.84,4.9-2.58l6.11-6.5l20.11,20.11
	c0.36,0.36,0.83,0.54,1.3,0.54c0.47,0,0.94-0.18,1.3-0.54c0.72-0.72,0.72-1.88,0-2.6L78.04,76.08l25.65-27.26
	c0.85,1.68,1.19,4,1.19,7.14V95.12z"/>
<path id="_x38_.arrow" class="st1" d="M98.85,33.13c-1.96,0-4.18,0.51-6.58,1.64L29.53,64.22c-10.23,4.8-9.83,14.14,0.78,18.05
	l15.85,5.84c3.5,1.29,4.51,2.3,5.8,5.8l5.84,15.85c2.01,5.45,5.45,8.2,8.98,8.2c3.33,0,6.74-2.46,9.07-7.43l29.45-62.73
	C109.22,39.41,105.68,33.13,98.85,33.13z M101.96,46.23l-29.45,62.73c-1.56,3.33-3.71,5.32-5.75,5.32c-2.09,0-4.21-2.22-5.53-5.8
	L55.4,92.63c-1.67-4.52-3.45-6.31-7.98-7.98l-15.85-5.84c-3.49-1.29-5.71-3.35-5.8-5.4c-0.09-2.05,1.95-4.3,5.31-5.88l62.73-29.45
	c1.8-0.85,3.54-1.29,5.02-1.29c1.21,0,2.83,0.3,3.73,1.7C103.66,40.21,103.43,43.1,101.96,46.23z"/>
<g id="_x31_5.people">
	<path class="st2" d="M64.51,76.96c12.56,0,22.73-10.18,22.73-22.73c0-12.56-10.18-22.73-22.73-22.73S41.78,41.67,41.78,54.23
		C41.78,66.78,51.96,76.96,64.51,76.96z M64.51,35.16c10.51,0,19.06,8.55,19.06,19.06s-8.55,19.06-19.06,19.06
		s-19.06-8.55-19.06-19.06S54,35.16,64.51,35.16z"/>
	<path class="st2" d="M104.67,95.77l-1.55-3.37c-2.99-6.48-8.11-9.75-15.24-9.75c-2.86,0-5.03,0.48-7.56,1.81
		c-5.15,2.7-9.58,3.88-15.8,3.88c-6.21,0-10.65-1.18-15.8-3.88c-2.54-1.33-4.7-1.81-7.56-1.81c-7.14,0-12.25,3.27-15.24,9.75
		l-1.55,3.37c-5.6,12.13,1.89,23.82,15.24,23.82h49.83C102.78,119.59,110.26,107.89,104.67,95.77z M101.06,110.25
		c-2.31,3.6-6.55,5.67-11.64,5.67H39.6c-5.09,0-9.33-2.07-11.64-5.67c-2.31-3.6-2.41-8.32-0.27-12.94l1.55-3.37
		c2.4-5.2,6.18-7.62,11.91-7.62c2.34,0,3.93,0.38,5.86,1.39c5.82,3.05,10.89,4.3,17.5,4.3c6.61,0,11.68-1.24,17.5-4.3
		c1.93-1.01,3.52-1.39,5.86-1.39c5.73,0,9.51,2.42,11.91,7.62l1.55,3.37C103.47,101.92,103.37,106.64,101.06,110.25z"/>
</g>
<g id="_x32_0.phone" class="st3">
	<path class="st4" d="M82.78,118.66c-12.55,0-28.16-7.21-41.17-20.22C21.86,78.69,15.49,52.93,27.4,41.02l4.59-4.59
		c2.93-2.94,5.83-4.27,8.64-3.96c2.79,0.31,5.34,2.24,7.57,5.74l4.74,7.45c3.28,5.16,2.89,8.68-1.43,13l-5.23,5.23
		c-0.16,0.3-0.5,1.87,0.46,4.97c1.46,4.73,4.98,10.13,9.66,14.81c4.68,4.68,10.08,8.2,14.81,9.66c3.17,0.98,4.74,0.6,4.99,0.44
		l5.21-5.22c4.32-4.32,7.85-4.71,13-1.43l7.45,4.74c3.5,2.23,5.43,4.78,5.74,7.57c0.31,2.8-1.03,5.7-3.96,8.64l-4.59,4.59
		C94.97,116.72,89.29,118.66,82.78,118.66z M39.84,36.1c-1.54,0-3.31,0.98-5.25,2.93l-4.59,4.59c-10.48,10.48-4.1,33.91,14.21,52.23
		c18.32,18.32,41.75,24.69,52.23,14.21l4.59-4.59c2.11-2.11,3.09-4.01,2.91-5.64c-0.18-1.63-1.54-3.27-4.06-4.87l-7.45-4.74
		c-3.68-2.34-5.34-2.17-8.43,0.93l-5.27,5.27c-1.47,1.47-4.69,1.62-8.61,0.42c-5.28-1.63-11.24-5.48-16.33-10.57
		c-5.09-5.09-8.94-11.04-10.57-16.33c-1.21-3.92-1.05-7.14,0.42-8.61l5.27-5.27c3.09-3.09,3.27-4.75,0.93-8.43l-4.74-7.45
		c-1.6-2.52-3.24-3.88-4.87-4.06C40.09,36.1,39.97,36.1,39.84,36.1z"/>
</g>
<g id="_x33_9._x0A_speech_balloon2" class="st3">
	<path class="st4" d="M75.52,67.48c-4.39,0-7.95,3.57-7.95,7.95s3.57,7.95,7.95,7.95c4.39,0,7.95-3.57,7.95-7.95
		S79.91,67.48,75.52,67.48z M75.52,79.71c-2.36,0-4.28-1.92-4.28-4.28c0-2.36,1.92-4.28,4.28-4.28c2.36,0,4.28,1.92,4.28,4.28
		C79.81,77.79,77.88,79.71,75.52,79.71z"/>
	<path class="st4" d="M53.5,67.48c-4.39,0-7.95,3.57-7.95,7.95s3.57,7.95,7.95,7.95c4.39,0,7.95-3.57,7.95-7.95
		S57.88,67.48,53.5,67.48z M53.5,79.71c-2.36,0-4.28-1.92-4.28-4.28c0-2.36,1.92-4.28,4.28-4.28c2.36,0,4.28,1.92,4.28,4.28
		C57.78,77.79,55.86,79.71,53.5,79.71z"/>
	<path class="st4" d="M105.84,110.49l-5.67-13.83c3.7-6.22,5.83-13.47,5.83-21.23c0-22.98-18.62-41.6-41.6-41.6
		c-22.97,0-41.6,18.62-41.6,41.6s18.63,41.6,41.6,41.6c7.76,0,15.01-2.13,21.23-5.83l13.83,5.67c0.63,0.26,1.27,0.38,1.88,0.38
		C104.6,117.25,107.23,113.87,105.84,110.49z M102.35,113c-0.19,0.28-0.55,0.58-1.01,0.58c-0.16,0-0.32-0.04-0.49-0.1l-13.83-5.67
		c-0.45-0.18-0.92-0.27-1.39-0.27c-0.65,0-1.3,0.17-1.88,0.52c-5.84,3.47-12.53,5.31-19.35,5.31c-20.91,0-37.93-17.02-37.93-37.93
		S43.49,37.5,64.4,37.5s37.93,17.02,37.93,37.93c0,6.82-1.84,13.51-5.31,19.35c-0.59,0.99-0.68,2.2-0.24,3.27l5.67,13.83
		C102.51,112.03,102.69,112.49,102.35,113z"/>
</g>
<g id="_x37_3._x0A_calculator" class="st3">
	<path class="st4" d="M86.53,32.11H42.49c-8.04,0-11.62,3.58-11.62,11.62v63.62c0,8.04,3.58,11.62,11.62,11.62h44.05
		c8.04,0,11.62-3.58,11.62-11.62V43.73C98.16,35.69,94.57,32.11,86.53,32.11z M94.49,107.35c0,6.02-1.93,7.95-7.95,7.95H42.49
		c-6.02,0-7.95-1.93-7.95-7.95V43.73c0-6.02,1.93-7.95,7.95-7.95h44.05c6.02,0,7.95,1.93,7.95,7.95V107.35z"/>
	<path class="st4" d="M81.64,44.34H47.38c-4.53,0-6.73,2.2-6.73,6.73v6.12c0,4.53,2.2,6.73,6.73,6.73h34.26
		c4.53,0,6.73-2.2,6.73-6.73v-6.12C88.37,46.54,86.17,44.34,81.64,44.34z M84.7,57.19c0,2.49-0.57,3.06-3.06,3.06H47.38
		c-2.49,0-3.06-0.57-3.06-3.06v-6.12c0-2.49,0.57-3.06,3.06-3.06h34.26c2.49,0,3.06,0.57,3.06,3.06V57.19z"/>
	<path class="st4" d="M49.83,76.15h-7.34c-1.01,0-1.84,0.82-1.84,1.84s0.82,1.84,1.84,1.84h7.34c1.01,0,1.84-0.82,1.84-1.84
		S50.84,76.15,49.83,76.15z"/>
	<path class="st4" d="M68.18,76.15h-7.34c-1.01,0-1.84,0.82-1.84,1.84s0.82,1.84,1.84,1.84h7.34c1.01,0,1.84-0.82,1.84-1.84
		S69.19,76.15,68.18,76.15z"/>
	<path class="st4" d="M86.53,76.15h-7.34c-1.01,0-1.84,0.82-1.84,1.84s0.82,1.84,1.84,1.84h7.34c1.01,0,1.84-0.82,1.84-1.84
		S87.55,76.15,86.53,76.15z"/>
	<path class="st4" d="M49.83,88.39h-7.34c-1.01,0-1.84,0.82-1.84,1.84s0.82,1.84,1.84,1.84h7.34c1.01,0,1.84-0.82,1.84-1.84
		S50.84,88.39,49.83,88.39z"/>
	<path class="st4" d="M68.18,88.39h-7.34c-1.01,0-1.84,0.82-1.84,1.84s0.82,1.84,1.84,1.84h7.34c1.01,0,1.84-0.82,1.84-1.84
		S69.19,88.39,68.18,88.39z"/>
	<path class="st4" d="M86.53,88.39h-7.34c-1.01,0-1.84,0.82-1.84,1.84s0.82,1.84,1.84,1.84h7.34c1.01,0,1.84-0.82,1.84-1.84
		S87.55,88.39,86.53,88.39z"/>
	<path class="st4" d="M49.83,100.62h-7.34c-1.01,0-1.84,0.82-1.84,1.84s0.82,1.84,1.84,1.84h7.34c1.01,0,1.84-0.82,1.84-1.84
		S50.84,100.62,49.83,100.62z"/>
	<path class="st4" d="M68.18,100.62h-7.34c-1.01,0-1.84,0.82-1.84,1.84s0.82,1.84,1.84,1.84h7.34c1.01,0,1.84-0.82,1.84-1.84
		S69.19,100.62,68.18,100.62z"/>
	<path class="st4" d="M86.53,100.62h-7.34c-1.01,0-1.84,0.82-1.84,1.84s0.82,1.84,1.84,1.84h7.34c1.01,0,1.84-0.82,1.84-1.84
		S87.55,100.62,86.53,100.62z"/>
</g>
<g id="_x38_0.book" class="st3">
	<path class="st4" d="M96.71,33.66c-2.01,0-4.27,0.34-6.77,1.04l-23.47,6.52c-0.84,0.23-1.4,0.35-1.96,0.35
		c-0.56,0-1.13-0.12-1.96-0.35L39.08,34.7c-2.5-0.69-4.76-1.04-6.77-1.04c-7.77,0-11.85,5.16-11.85,15.19v45.38
		c0,8.57,2.49,11.85,10.75,14.15l31.33,8.7c0.84,0.23,1.4,0.35,1.96,0.35c0.56,0,1.13-0.12,1.96-0.35l31.33-8.7
		c8.26-2.29,10.75-5.57,10.75-14.15V48.84C108.56,38.81,104.49,33.66,96.71,33.66z M32.2,104.84c-6.71-1.86-8.06-3.65-8.06-10.61
		V48.84c0-4.09,0.77-7.23,2.23-9.09c1.28-1.63,3.22-2.42,5.95-2.42c1.68,0,3.62,0.3,5.78,0.9l23.47,6.52
		c0.39,0.11,0.75,0.2,1.11,0.27v68.28L32.2,104.84z M104.89,94.23c0,6.96-1.36,8.75-8.06,10.61l-30.48,8.47V45.02
		c0.36-0.08,0.73-0.16,1.11-0.27l23.47-6.52c2.16-0.6,4.11-0.9,5.78-0.9c2.45,0,8.18,0,8.18,11.51V94.23z"/>
	<path class="st4" d="M55.21,91.38l-22.02-6.12c-0.97-0.27-1.99,0.3-2.26,1.28c-0.27,0.98,0.3,1.99,1.28,2.26l22.02,6.12
		c0.16,0.05,0.33,0.07,0.49,0.07c0.8,0,1.54-0.53,1.77-1.34C56.76,92.67,56.19,91.65,55.21,91.38z"/>
	<path class="st4" d="M55.21,74.25l-22.02-6.12c-0.97-0.27-1.99,0.3-2.26,1.28c-0.27,0.98,0.3,1.99,1.28,2.26l22.02,6.12
		c0.16,0.05,0.33,0.07,0.49,0.07c0.8,0,1.54-0.53,1.77-1.34C56.76,75.54,56.19,74.52,55.21,74.25z"/>
	<path class="st4" d="M55.21,58.35l-22.02-6.12c-0.97-0.27-1.99,0.3-2.26,1.28c-0.27,0.98,0.3,1.99,1.28,2.26l22.02,6.12
		c0.16,0.05,0.33,0.07,0.49,0.07c0.8,0,1.54-0.53,1.77-1.34C56.76,59.63,56.19,58.62,55.21,58.35z"/>
	<path class="st4" d="M95.83,85.26l-22.02,6.12c-0.98,0.27-1.55,1.28-1.28,2.26c0.23,0.81,0.96,1.34,1.77,1.34
		c0.16,0,0.33-0.02,0.49-0.07l22.02-6.12c0.98-0.27,1.55-1.28,1.28-2.26C97.82,85.56,96.8,84.99,95.83,85.26z"/>
	<path class="st4" d="M95.83,68.14l-22.02,6.12c-0.98,0.27-1.55,1.28-1.28,2.26c0.23,0.81,0.96,1.34,1.77,1.34
		c0.16,0,0.33-0.02,0.49-0.07l22.02-6.12c0.98-0.27,1.55-1.28,1.28-2.26C97.82,68.44,96.8,67.87,95.83,68.14z"/>
	<path class="st4" d="M95.83,52.23l-22.02,6.12c-0.98,0.27-1.55,1.28-1.28,2.26c0.23,0.81,0.96,1.34,1.77,1.34
		c0.16,0,0.33-0.02,0.49-0.07l22.02-6.12c0.98-0.27,1.55-1.28,1.28-2.26C97.82,52.53,96.8,51.96,95.83,52.23z"/>
</g>
<g>
	<path class="st5" d="M143.34,44.28c0.16-0.88,0.28-1.79,0.4-2.79h-15.48v-3.43h15.83c0.12-1.28,0.16-2.51,0.2-3.59l4.31,0.2
		c-0.12,1.12-0.28,2.27-0.44,3.39h14.96v3.43h-15.48c-0.16,1-0.36,1.95-0.52,2.79h11.69v18.67h-21.06V44.28H143.34z M163.49,69.28
		h-29.64v1.99h-3.63V45.43h3.63v20.42h29.64V69.28z M155.15,46.99h-13.88v2.67h13.88V46.99z M155.15,52.21h-13.88v2.75h13.88V52.21z
		 M155.15,57.48h-13.88v2.75h13.88V57.48z"/>
	<path class="st5" d="M193.44,50.98c-0.48,1.08-1.04,2.23-1.6,3.43h13.56v3.15h-4.55c-0.68,2.87-1.72,5.19-3.27,7.02
		c2.83,1.24,5.42,2.59,7.22,3.87l-2.39,2.79c-1.79-1.32-4.51-2.83-7.5-4.23c-3.11,2.15-7.46,3.43-13.48,4.23
		c-0.28-1-0.88-2.31-1.44-3.03c4.95-0.48,8.62-1.32,11.29-2.79c-1.4-0.56-2.83-1.08-4.19-1.56l-0.52,0.96l-3.19-1.08
		c0.92-1.68,2.03-3.87,3.15-6.18h-5.42v-2.19c-1.08,0.32-2.15,0.68-3.23,1v10.53c0,1.95-0.4,2.99-1.52,3.59
		c-1.16,0.6-2.87,0.72-5.5,0.72c-0.12-0.96-0.6-2.55-1.08-3.59c1.68,0.04,3.31,0.04,3.83,0.04c0.52,0,0.72-0.2,0.72-0.76v-9.45
		l-4.99,1.44l-0.8-3.63c1.6-0.36,3.59-0.88,5.78-1.48v-7.98h-5.07v-3.43h5.07v-7.7h3.55v7.7h3.47v3.43h-3.47v7.02l3.43-0.96
		l0.32,2.55h6.34c0.52-1.2,1.04-2.35,1.48-3.43h-8.58v-3.23h6.46c-0.2-1.64-0.72-3.91-1.36-5.66l1.32-0.28h-4.99v-3.15h9.13v-4.07
		h3.71v4.07h9.29v3.15h-3.43c-0.76,2.07-1.52,4.31-2.23,5.94h6.7v3.23H193.44z M190.33,57.56c-0.6,1.24-1.24,2.47-1.83,3.63
		c1.83,0.52,3.79,1.24,5.74,1.99c1.36-1.48,2.31-3.31,2.91-5.62H190.33z M189.29,41.8c0.76,1.91,1.36,4.31,1.48,5.78l-0.68,0.16h5.3
		c0.68-1.67,1.48-4.11,1.95-5.94H189.29z"/>
	<path class="st5" d="M219.61,47.27c-2.19,1.56-4.55,2.99-6.94,4.15c-0.4-0.84-1.4-2.23-2.19-3.03c6.82-3.11,13.32-8.85,16.31-13.72
		h3.83c4.23,5.86,10.85,10.73,17.07,13.16c-0.88,0.92-1.72,2.23-2.35,3.35c-2.31-1.12-4.75-2.51-7.06-4.15v3.11h-18.67V47.27z
		 M212.75,54.29h32.75v3.47h-18.27c-1.32,2.67-2.79,5.66-4.23,8.22c4.43-0.16,9.37-0.36,14.24-0.56c-1.48-1.68-3.07-3.35-4.63-4.75
		l3.19-1.71c3.63,3.07,7.42,7.3,9.25,10.25l-3.39,2.11c-0.44-0.76-1.04-1.64-1.75-2.59c-9.49,0.48-19.62,0.92-26.4,1.2l-0.48-3.63
		l5.9-0.2c1.32-2.47,2.75-5.66,3.71-8.34h-9.89V54.29z M237.83,46.71c-3.59-2.55-6.86-5.54-8.97-8.46c-1.91,2.79-4.95,5.78-8.5,8.46
		H237.83z"/>
	<path class="st5" d="M134.81,90.81c-0.04,2.51,0,5.86,0.28,8.97c0.6,6.26,2.23,10.49,4.91,10.49c2,0,3.75-4.35,4.67-7.98l3.15,3.71
		c-2.51,6.82-4.99,9.17-7.9,9.17c-4.03,0-7.74-3.83-8.82-14.32c-0.4-3.51-0.44-8.3-0.44-10.69c0-1-0.08-2.67-0.32-3.75l4.87,0.08
		C135.01,87.66,134.81,89.73,134.81,90.81z M162.77,107.72l-4.11,1.6c-0.68-6.86-2.95-15.72-6.98-20.5l3.95-1.32
		C159.3,92.13,162.25,101.26,162.77,107.72z"/>
	<path class="st5" d="M184.79,86.46c-0.12,0.68-0.28,1.48-0.48,2.35c2.43-0.36,4.91-0.8,7.22-1.4v3.95c-2.51,0.6-5.3,1.04-8.02,1.36
		c-0.4,1.71-0.84,3.55-1.28,5.22c-1.44,5.62-4.15,13.84-6.3,18.35l-4.35-1.48c2.35-4.07,5.27-12.29,6.78-17.87
		c0.32-1.24,0.64-2.55,0.96-3.87c-1.16,0.04-2.23,0.08-3.23,0.08c-1.83,0-3.31-0.04-4.75-0.16l-0.08-3.91
		c1.95,0.24,3.35,0.32,4.87,0.32c1.24,0,2.59-0.04,3.99-0.16c0.2-1.2,0.4-2.23,0.48-2.99c0.2-1.24,0.24-2.71,0.16-3.59l4.79,0.36
		C185.3,84.03,184.95,85.66,184.79,86.46z M189.57,108.48c0,1.79,1.08,3.43,6.18,3.43c2.63,0,5.34-0.32,7.98-0.8l-0.12,4.03
		c-2.19,0.28-4.87,0.56-7.9,0.56c-6.5,0-10.01-2.11-10.01-6.06c0-1.68,0.32-3.35,0.68-4.99l3.71,0.36
		C189.77,106.25,189.57,107.48,189.57,108.48z M196.15,94.8c2.31,0,4.71,0.08,6.98,0.32l-0.12,3.83c-2.03-0.28-4.39-0.52-6.78-0.52
		c-2.59,0-5.03,0.16-7.54,0.44v-3.71C190.85,94.96,193.6,94.8,196.15,94.8z"/>
	<path class="st5" d="M218.17,90.81c-0.04,2.51,0,5.86,0.28,8.97c0.6,6.26,2.23,10.49,4.91,10.49c1.99,0,3.75-4.35,4.67-7.98
		l3.15,3.71c-2.51,6.82-4.99,9.17-7.9,9.17c-4.03,0-7.74-3.83-8.81-14.32c-0.4-3.51-0.44-8.3-0.44-10.69c0-1-0.08-2.67-0.32-3.75
		l4.87,0.08C218.37,87.66,218.17,89.73,218.17,90.81z M246.13,107.72l-4.11,1.6c-0.68-6.86-2.95-15.72-6.98-20.5l3.95-1.32
		C242.66,92.13,245.61,101.26,246.13,107.72z"/>
</g>
</svg>
